<svg xmlns="http://www.w3.org/2000/svg" version="1.1" xmlns:xlink="http://www.w3.org/1999/xlink" xmlns:svgjs="http://svgjs.dev/svgjs" width="1000" height="1000" viewBox="0 0 1000 1000"><rect width="1000" height="1000" fill="#000000"></rect><g transform="matrix(0.7,0,0,0.7,149.57575757575756,282.1265587044535)"><svg viewBox="0 0 396 247" data-background-color="#046380" preserveAspectRatio="xMidYMid meet" height="623" width="1000" xmlns="http://www.w3.org/2000/svg" xmlns:xlink="http://www.w3.org/1999/xlink"><g id="tight-bounds" transform="matrix(1,0,0,1,0.2400000000000091,-0.09999999999999432)"><svg viewBox="0 0 395.52 247.2" height="247.2" width="395.52"><g><svg></svg></g><g><svg viewBox="0 0 395.52 247.2" height="247.2" width="395.52"><g transform="matrix(1,0,0,1,39.55199999999999,99.49408775376556)"><svg viewBox="0 0 316.416 48.211824492468885" height="48.211824492468885" width="316.416"><g><svg viewBox="0 0 316.416 48.211824492468885" height="48.211824492468885" width="316.416"><g><svg viewBox="0 0 316.416 48.211824492468885" height="48.211824492468885" width="316.416"><g id="textblocktransform"><svg viewBox="0 0 316.416 48.211824492468885" height="48.211824492468885" width="316.416" id="textblock"><g><svg viewBox="0 0 316.416 48.211824492468885" height="48.211824492468885" width="316.416"><g transform="matrix(1,0,0,1,0,0)"><svg width="316.416" viewBox="2.049999952316284 -34.900001525878906 229.0399932861328 34.900001525878906" height="48.211824492468885" data-palette-color="#ffffff"><path d="M2.05 0L2.05-3.3 5.55-3.3 5.55-31.6 2.05-31.6 2.05-34.9 21.7-34.9Q24-34.9 25.95-34.4 27.9-33.9 29.33-32.83 30.75-31.75 31.55-30.08 32.35-28.4 32.35-26.05L32.35-26.05Q32.35-24.25 31.75-22.75 31.15-21.25 30.1-20.13 29.05-19 27.65-18.23 26.25-17.45 24.6-17.1L24.6-17.1 31.05-6.25Q32.05-4.55 33.13-3.93 34.2-3.3 35.8-3.3L35.8-3.3 36.05-3.3 36.05 0 31.3 0Q29.55 0 28.25-0.28 26.95-0.55 25.95-1.15 24.95-1.75 24.2-2.65 23.45-3.55 22.8-4.85L22.8-4.85 17.4-15.45 13.65-15.45 13.65-3.3 17.15-3.3 17.15 0 2.05 0ZM13.65-31.3L13.65-18.85 18.65-18.85Q24-18.85 24-23.6L24-23.6 24-26.55Q24-31.3 18.65-31.3L18.65-31.3 13.65-31.3ZM38.8 0L38.8-3.3 42.3-3.3 42.3-31.6 38.8-31.6 38.8-34.9 53.9-34.9 53.9-31.6 50.4-31.6 50.4-19.75 63.7-19.75 63.7-31.6 60.2-31.6 60.2-34.9 75.3-34.9 75.3-31.6 71.8-31.6 71.8-3.3 75.3-3.3 75.3 0 60.2 0 60.2-3.3 63.7-3.3 63.7-16.15 50.4-16.15 50.4-3.3 53.9-3.3 53.9 0 38.8 0ZM86.55 0L86.55-3.3 90.5-3.3 90.5-13.95 81.09-31.6 78.59-31.6 78.59-34.9 93.3-34.9 93.3-31.6 89.8-31.6 96.5-18.5 96.69-18.5 103.64-31.6 100.14-31.6 100.14-34.9 110.5-34.9 110.5-31.6 107.94-31.6 98.59-15.05 98.59-3.3 102.55-3.3 102.55 0 86.55 0ZM121.19 0L121.19-3.3 125.94-3.3 125.94-31.3 119.44-31.3 119.44-25.6 113.64-25.6 113.64-34.9 146.34-34.9 146.34-25.6 140.54-25.6 140.54-31.3 134.04-31.3 134.04-3.3 138.79-3.3 138.79 0 121.19 0ZM149.79 0L149.79-3.3 153.29-3.3 153.29-31.6 149.79-31.6 149.79-34.9 164.89-34.9 164.89-31.6 161.39-31.6 161.39-19.75 174.69-19.75 174.69-31.6 171.19-31.6 171.19-34.9 186.29-34.9 186.29-31.6 182.79-31.6 182.79-3.3 186.29-3.3 186.29 0 171.19 0 171.19-3.3 174.69-3.3 174.69-16.15 161.39-16.15 161.39-3.3 164.89-3.3 164.89 0 149.79 0ZM190.39 0L190.39-3.3 193.89-3.3 193.89-31.6 190.39-31.6 190.39-34.9 202.99-34.9 210.79-18.1 210.99-18.1 218.29-34.9 231.09-34.9 231.09-31.6 227.59-31.6 227.59-3.3 231.09-3.3 231.09 0 215.99 0 215.99-3.3 219.49-3.3 219.49-28.75 219.19-28.75 216.29-21.45 208.64-5.35 201.04-21.45 198.09-28.75 197.79-28.75 197.79-3.3 201.29-3.3 201.29 0 190.39 0Z" opacity="1" transform="matrix(1,0,0,1,0,0)" fill="#ffffff" class="undefined-text-0" data-fill-palette-color="primary" id="text-0"></path></svg></g></svg></g></svg></g></svg></g></svg></g></svg></g><g mask="url(#f8f210b2-1b47-4648-9b6a-be5ffe41d61c)"><g transform="matrix(2.7244444444444444, 0, 0, 2.7244444444444444, 75.16, 1)"><svg xmlns="http://www.w3.org/2000/svg" data-name="Layer 2" viewBox="5 5 90 90" x="0" y="0" height="90" width="90" class="icon-none" data-fill-palette-color="accent" id="none"><path d="M5.76 95H5V5H5.76V95Zm7.5-80.77H12.5V85.77h0.76V14.23ZM9.51 9.61H8.75V90.39H9.51V9.61ZM17 18.84H16.25V81.16H17V18.84ZM28.26 30.38H27.5V69.62h0.76V30.38Zm-3.75-4.61H23.75V74.23h0.76V25.77ZM32 35H31.25V65H32V35Zm3.75 4.51H35v21h0.76v-21Zm14.62 9.86H49.62v1.25h0.76V49.37ZM43.26 47H42.5v6h0.76V47Zm-3.75-2.77H38.75V55.77h0.76V44.23ZM47 48.84H46.25v2.32H47V48.84ZM20.76 21.16H20V78.84h0.76V21.16ZM94.24 95H95V5H94.24V95Zm-7.5-9.23H87.5V14.23H86.74V85.77Zm3.75 4.61h0.76V9.61H90.49V90.39ZM83 81.16h0.76V18.84H83V81.16ZM71.74 69.62H72.5V30.38H71.74V69.62Zm3.75 4.61h0.76V25.77H75.49V74.23ZM68 65h0.76V35H68V65Zm-3.75-4.51H65v-21H64.24v21ZM56.74 53H57.5V47H56.74v6Zm3.75 2.77h0.76V44.23H60.49V55.77ZM53 51.16h0.76V48.84H53v2.32ZM79.24 78.84H80V21.16H79.24V78.84Z" fill="#ffffff" data-fill-palette-color="accent"></path></svg></g></g></svg></g><defs><mask id="f8f210b2-1b47-4648-9b6a-be5ffe41d61c"><rect width="640" height="400" fill="white"></rect><rect width="348.05760000000004" height="70.97513385023706" fill="black" y="88.11243307488147" x="23.731199999999973" id="transform-me"></rect></mask></defs></svg><rect width="395.52" height="247.2" fill="none" stroke="none" visibility="hidden"></rect></g></svg></g></svg>